<svg xmlns="http://www.w3.org/2000/svg" viewBox="0 0 400 400" width="120" height="120">
	<style>
		tspan { white-space:pre }
		.shp0 { fill: none;stroke: #ffffff;stroke-linecap:round;stroke-linejoin:round;stroke-width: 27.1 } 
		.shp1 { fill: none;stroke: #ffffff;stroke-width: 18.1 } 
		.shp2 { fill: none;stroke: #ffffff;stroke-linecap:round;stroke-linejoin:round;stroke-width: 18.1 } 
	</style>
	<path id="Background" class="shp0" d="M29 33L371 33L371 368L29 368L29 33Z" />
	<path id="Shape 3" class="shp1" d="M170.5 92.11L175.5 92.11L175.5 320.11L170.5 320.11L170.5 92.11Z" />
	<path id="Shape 3 copy" class="shp1" d="M225.5 92.11L230.5 92.11L230.5 320.11L225.5 320.11L225.5 92.11Z" />
	<path id="Shape 2" class="shp2" d="M135.5 185.11L140.5 185.11L140.5 225.16L135.5 225.16L135.5 185.11Z" />
	<path id="Shape 3" class="shp2" d="M172.54 88.69L170.8 93.38L31.46 41.71L33.2 37.03L172.54 88.69Z" />
	<path id="Shape 4" class="shp2" d="M172.26 319.98L173.74 324.76L31.41 368.76L29.93 363.98L172.26 319.98Z" />
	<path id="Shape 5" class="shp2" d="M226.6 322.76L228.07 317.98L370.74 361.98L369.26 366.76L226.6 322.76Z" />
	<path id="Shape 6" class="shp2" d="M227.86 93.39L226.14 88.69L370.81 36.02L372.52 40.72L227.86 93.39Z" />
	<path id="Shape 2 copy" class="shp2" d="M259.5 185.11L264.5 185.11L264.5 225.16L259.5 225.16L259.5 185.11Z" />
</svg>